<svg width="29" height="38" viewBox="0 0 29 38" fill="none" xmlns="http://www.w3.org/2000/svg">
<path d="M16.2332 28.0699C16.212 27.4653 16.159 26.8607 16.0723 26.2599C15.9077 24.8878 15.6072 23.6853 15.1218 22.7153H15.1199C15.1199 22.7153 15.1189 22.7124 15.118 22.7104V22.7153H3.70593C2.11402 22.7153 0.757099 23.721 0.233205 25.1317C0.0839337 25.5338 0.0020752 25.9697 0.0020752 26.4239C0.0020752 27.4479 0.416183 28.3755 1.08646 29.0467C1.75674 29.7178 2.68318 30.1324 3.70593 30.1324H16.2264C16.2264 30.1064 16.2264 30.0823 16.2274 30.0563C16.2322 30.0563 16.237 30.0563 16.2418 30.0563C16.2688 29.3948 16.2553 28.7294 16.2322 28.0689L16.2332 28.0699Z" fill="url(#paint0_linear_290_2592)"/>
<path d="M18.535 30.0192C17.7752 30.0086 17.0076 30.0539 16.243 30.0568C16.2189 30.6479 16.1611 31.2361 16.0475 31.8175C15.8703 32.7201 15.5313 33.5851 15.0796 34.3844C14.6992 35.0585 13.6591 36.1818 14.0521 37.0179C14.2158 37.3669 14.7281 37.4778 15.0835 37.4826C16.1659 37.4971 17.2802 37.0015 18.1777 36.4258C19.186 35.7797 20.0008 34.8347 20.4717 33.7307C20.8116 32.9332 21.0909 31.9043 20.671 31.0828C20.2791 30.3162 19.3401 30.0298 18.535 30.0192Z" fill="url(#paint1_linear_290_2592)"/>
<path d="M24.414 0.5H15.0205C13.5856 0.5 10.995 1.66484 10.0715 3.1016C9.01117 4.69747 8.61247 6.29333 8.65485 7.8892H3.70385C3.54977 7.8892 3.39857 7.89884 3.2493 7.91716C1.44456 8.13798 0.0404477 9.6596 0 11.5168C0 11.5438 0 11.5708 0 11.5978C0 12.6218 0.415071 13.5495 1.08535 14.2206C1.75562 14.8917 2.68111 15.3073 3.70385 15.3073H11.1886V15.2794C11.1944 15.2909 11.2002 15.3015 11.2069 15.3131C12.6101 17.7238 14.0007 20.1518 15.1284 22.7033H23.1505C25.196 22.7033 26.8544 21.0428 26.8544 18.9947C26.8544 18.7295 26.8265 18.4711 26.7735 18.2204C26.6223 17.5068 26.2669 16.8694 25.77 16.3719C25.0997 15.6998 24.1733 15.2851 23.1505 15.2851H11.2377L10.3373 13.6507C10.4268 13.833 10.5183 14.0142 10.6117 14.1965C10.5183 14.0142 10.4259 13.833 10.3373 13.6507C10.161 13.292 9.99444 12.9343 9.83842 12.5756C9.68241 12.2168 9.53796 11.8591 9.40795 11.5004C8.97265 10.3057 8.69144 9.11093 8.65581 7.91716H24.4131C26.4615 7.91716 28.1169 6.25476 28.1169 4.21051V4.16615C28.0938 2.13444 26.4432 0.5 24.414 0.5Z" fill="url(#paint2_linear_290_2592)"/>
<defs>
<linearGradient id="paint0_linear_290_2592" x1="20.5767" y1="22.7104" x2="2.16828" y2="43.2964" gradientUnits="userSpaceOnUse">
<stop offset="0.31" stop-color="#A979E8"/>
<stop offset="0.586828" stop-color="#731DDF"/>
<stop offset="0.830598" stop-color="#05042B"/>
</linearGradient>
<linearGradient id="paint1_linear_290_2592" x1="22.7209" y1="30.0176" x2="8.31468" y2="36.834" gradientUnits="userSpaceOnUse">
<stop offset="0.31" stop-color="#A979E8"/>
<stop offset="0.586828" stop-color="#731DDF"/>
<stop offset="0.830598" stop-color="#05042B"/>
</linearGradient>
<linearGradient id="paint2_linear_290_2592" x1="35.5895" y1="0.5" x2="-14.945" y2="33.1764" gradientUnits="userSpaceOnUse">
<stop offset="0.31" stop-color="#A979E8"/>
<stop offset="0.586828" stop-color="#731DDF"/>
<stop offset="0.830598" stop-color="#05042B"/>
</linearGradient>
</defs>
</svg>
